<svg width="140" height="22" viewBox="0 0 140 22" fill="none" xmlns="http://www.w3.org/2000/svg">
<path d="M30.342 7.24198C31.0212 6.08495 31.9404 5.18076 33.106 4.53154C34.2694 3.88232 35.5443 3.55664 36.9306 3.55664C38.5161 3.55664 39.926 3.9466 41.1623 4.72438C42.3986 5.50216 43.2942 6.60562 43.8513 8.03476H40.9159C40.5302 7.24841 39.9946 6.66347 39.3089 6.27779C38.6233 5.89212 37.8305 5.69928 36.9306 5.69928C35.945 5.69928 35.0665 5.92211 34.2951 6.3635C33.5238 6.80702 32.9196 7.44124 32.4846 8.27045C32.0475 9.09965 31.8311 10.0638 31.8311 11.163C31.8311 12.2622 32.0497 13.2264 32.4846 14.0556C32.9196 14.8848 33.5238 15.5233 34.2951 15.9732C35.0665 16.4232 35.945 16.6482 36.9306 16.6482C37.8305 16.6482 38.6233 16.4553 39.3089 16.0697C39.9946 15.684 40.5302 15.099 40.9159 14.3127H43.8513C43.2942 15.7418 42.3986 16.841 41.1623 17.6124C39.926 18.3837 38.5161 18.7694 36.9306 18.7694C35.5293 18.7694 34.2523 18.4437 33.0953 17.7945C31.9382 17.1453 31.0212 16.2411 30.342 15.084C29.6628 13.927 29.3242 12.62 29.3242 11.163C29.3242 9.70602 29.6628 8.39901 30.342 7.24198Z" fill="#131313"/>
<path d="M45.7154 4.82088C45.4154 4.52091 45.2654 4.15023 45.2654 3.70671C45.2654 3.26318 45.4154 2.8925 45.7154 2.59253C46.0154 2.29256 46.386 2.14258 46.8296 2.14258C47.2731 2.14258 47.6224 2.29256 47.9223 2.59253C48.2223 2.8925 48.3723 3.26318 48.3723 3.70671C48.3723 4.15023 48.2223 4.52091 47.9223 4.82088C47.6224 5.12085 47.2581 5.27083 46.8296 5.27083C46.401 5.27083 46.0154 5.12085 45.7154 4.82088ZM48.0295 6.83496V18.6409H45.5868V6.83496H48.0295Z" fill="#131313"/>
<path d="M53.6968 8.82766V15.3627C53.6968 15.8062 53.7996 16.1234 54.0074 16.3162C54.2131 16.509 54.5688 16.6054 55.0681 16.6054H56.5679V18.641H54.6395C53.5403 18.641 52.6961 18.3838 52.1112 17.8696C51.5263 17.3554 51.2327 16.5197 51.2327 15.3627V8.82766H49.84V6.835H51.2327V3.89959H53.6968V6.835H56.5679V8.82766H53.6968Z" fill="#131313"/>
<path d="M62.3423 7.14564C62.9358 6.80925 63.6386 6.64212 64.4528 6.64212V9.17044H63.8314C62.8736 9.17044 62.1494 9.41256 61.6566 9.89894C61.1638 10.3853 60.9174 11.2274 60.9174 12.4273V18.6409H58.4748V6.83496H60.9174V8.54907C61.2752 7.94913 61.7488 7.48204 62.3423 7.14564Z" fill="#131313"/>
<path d="M76.7087 13.6486H67.6882C67.7589 14.5913 68.1103 15.3477 68.738 15.9198C69.3658 16.4918 70.1372 16.7768 71.0521 16.7768C72.3655 16.7768 73.2954 16.2262 73.8375 15.127H76.473C76.1152 16.2133 75.4702 17.1025 74.5339 17.7946C73.5976 18.4866 72.4384 18.8337 71.0521 18.8337C69.9229 18.8337 68.9137 18.5809 68.0203 18.0731C67.1268 17.5653 66.4283 16.8518 65.9205 15.9305C65.4127 15.0091 65.1598 13.9421 65.1598 12.7272C65.1598 11.5123 65.4062 10.4453 65.899 9.52398C66.3919 8.60264 67.0839 7.89128 67.9774 7.39205C68.8709 6.89281 69.8951 6.64212 71.0521 6.64212C72.2091 6.64212 73.1583 6.88424 74.0304 7.37062C74.9024 7.857 75.5795 8.53836 76.0659 9.41684C76.5523 10.2953 76.7944 11.3067 76.7944 12.4487C76.7944 12.8922 76.7665 13.2907 76.7087 13.6486ZM74.2446 11.6773C74.2296 10.7774 73.9082 10.0554 73.2804 9.51326C72.6527 8.97117 71.8727 8.69906 70.945 8.69906C70.1029 8.69906 69.3808 8.96689 68.7809 9.50255C68.181 10.0382 67.8231 10.7624 67.7096 11.6773H74.2446Z" fill="#131313"/>
<path d="M78.7314 9.53469C79.2242 8.61978 79.8948 7.91057 80.7454 7.40276C81.5961 6.89496 82.5345 6.64212 83.563 6.64212C84.4908 6.64212 85.3028 6.82425 85.9949 7.1885C86.687 7.55275 87.2419 8.00699 87.6554 8.54907V6.83496H90.1195V18.6409H87.6554V16.8839C87.2419 17.441 86.6763 17.906 85.9628 18.2767C85.2493 18.6473 84.4351 18.8337 83.5201 18.8337C82.5067 18.8337 81.5768 18.5723 80.7347 18.0517C79.8927 17.531 79.2242 16.8025 78.7314 15.8662C78.2385 14.9299 77.9921 13.8693 77.9921 12.6844C77.9921 11.4995 78.2385 10.4496 78.7314 9.53469ZM87.1519 10.606C86.8155 10.0061 86.3763 9.54969 85.8342 9.23472C85.2921 8.92189 84.705 8.76334 84.0772 8.76334C83.4494 8.76334 82.8624 8.91761 82.3203 9.22401C81.776 9.5304 81.3389 9.98036 81.0025 10.5739C80.6662 11.1674 80.499 11.8702 80.499 12.6844C80.499 13.4986 80.6662 14.2121 81.0025 14.827C81.3389 15.4419 81.7803 15.909 82.331 16.2304C82.8816 16.5518 83.4623 16.7125 84.0772 16.7125C84.6922 16.7125 85.2921 16.5561 85.8342 16.2412C86.3763 15.9262 86.8155 15.4655 87.1519 14.8592C87.4883 14.2528 87.6554 13.5414 87.6554 12.7272C87.6554 11.913 87.4883 11.2059 87.1519 10.606Z" fill="#131313"/>
<path d="M94.544 18.3302C93.8091 17.9938 93.2263 17.5375 92.7978 16.9589C92.3692 16.3804 92.14 15.7333 92.1121 15.0198H94.6404C94.6833 15.5191 94.9233 15.939 95.3582 16.2733C95.7932 16.6097 96.3396 16.7768 96.9973 16.7768C97.6551 16.7768 98.2144 16.644 98.5936 16.3804C98.9729 16.1169 99.1614 15.7762 99.1614 15.3627C99.1614 14.9191 98.9514 14.5913 98.5293 14.3771C98.1072 14.1628 97.4409 13.9271 96.526 13.67C95.6411 13.4279 94.919 13.1922 94.3619 12.9629C93.8048 12.7337 93.3227 12.3844 92.9156 11.913C92.5085 11.4416 92.305 10.8203 92.305 10.0489C92.305 9.42113 92.4914 8.84476 92.862 8.3241C93.2327 7.80343 93.7662 7.39205 94.4583 7.09208C95.1504 6.79211 95.9474 6.64212 96.8474 6.64212C98.1908 6.64212 99.2728 6.98066 100.093 7.65988C100.914 8.3391 101.353 9.26257 101.411 10.4346H98.9686C98.9257 9.90537 98.7115 9.48541 98.3258 9.17044C97.9401 8.85547 97.4194 8.69906 96.7617 8.69906C96.1039 8.69906 95.6261 8.82119 95.2832 9.06331C94.9404 9.30543 94.769 9.62682 94.769 10.0275C94.769 10.3425 94.8826 10.606 95.1118 10.8203C95.3411 11.0345 95.6196 11.2017 95.9474 11.3238C96.2753 11.4459 96.7617 11.6002 97.4044 11.7845C98.2615 12.0137 98.9643 12.2451 99.5149 12.4808C100.066 12.7165 100.539 13.0636 100.94 13.52C101.34 13.9764 101.546 14.5849 101.561 15.3412C101.561 16.0119 101.375 16.6118 101.004 17.1411C100.633 17.6703 100.108 18.0838 99.4292 18.3838C98.75 18.6838 97.9551 18.8337 97.0402 18.8337C96.1253 18.8337 95.2789 18.6645 94.544 18.3302Z" fill="#131313"/>
<path d="M103.265 9.52398C103.757 8.60264 104.439 7.89128 105.311 7.39205C106.183 6.89281 107.181 6.64212 108.311 6.64212C109.74 6.64212 110.92 6.98066 111.857 7.65988C112.793 8.3391 113.425 9.30543 113.753 10.5632H111.117C110.903 9.97822 110.56 9.51969 110.089 9.19187C109.618 8.86404 109.024 8.69906 108.311 8.69906C107.31 8.69906 106.515 9.05259 105.921 9.75967C105.328 10.4667 105.032 11.4566 105.032 12.7272C105.032 13.9978 105.328 14.992 105.921 15.7055C106.515 16.419 107.31 16.7768 108.311 16.7768C109.725 16.7768 110.659 16.1554 111.117 14.9127H113.753C113.41 16.1126 112.767 17.0661 111.824 17.7731C110.882 18.4802 109.71 18.8337 108.311 18.8337C107.181 18.8337 106.183 18.5809 105.311 18.0731C104.439 17.5653 103.757 16.8518 103.265 15.9305C102.772 15.0091 102.525 13.9421 102.525 12.7272C102.525 11.5123 102.772 10.4453 103.265 9.52398Z" fill="#131313"/>
<path d="M115.456 9.53469C115.949 8.61978 116.62 7.91057 117.47 7.40276C118.321 6.89496 119.259 6.64212 120.288 6.64212C121.216 6.64212 122.028 6.82425 122.72 7.1885C123.412 7.55275 123.967 8.00699 124.38 8.54907V6.83496H126.844V18.6409H124.38V16.8839C123.967 17.441 123.401 17.906 122.688 18.2767C121.974 18.6473 121.16 18.8337 120.245 18.8337C119.232 18.8337 118.302 18.5723 117.46 18.0517C116.615 17.531 115.949 16.8025 115.456 15.8662C114.963 14.9299 114.717 13.8693 114.717 12.6844C114.717 11.4995 114.963 10.4496 115.456 9.53469ZM123.877 10.606C123.54 10.0061 123.101 9.54969 122.559 9.23472C122.017 8.92189 121.43 8.76334 120.802 8.76334C120.174 8.76334 119.587 8.91761 119.045 9.22401C118.503 9.5304 118.064 9.98036 117.727 10.5739C117.391 11.1674 117.224 11.8702 117.224 12.6844C117.224 13.4986 117.391 14.2121 117.727 14.827C118.062 15.4419 118.505 15.909 119.056 16.2304C119.606 16.5518 120.187 16.7125 120.802 16.7125C121.417 16.7125 122.017 16.5561 122.559 16.2412C123.101 15.9262 123.54 15.4655 123.877 14.8592C124.213 14.2528 124.38 13.5414 124.38 12.7272C124.38 11.913 124.213 11.2059 123.877 10.606Z" fill="#131313"/>
<path d="M137.654 7.22064C138.389 7.60631 138.965 8.1784 139.379 8.93475C139.792 9.6911 140 10.606 140 11.6773V18.6409H137.579V12.0416C137.579 10.9853 137.315 10.1732 136.786 9.60968C136.257 9.04617 135.537 8.76334 134.622 8.76334C133.707 8.76334 132.983 9.04617 132.447 9.60968C131.912 10.1732 131.644 10.9853 131.644 12.0416V18.6409H129.201V6.83496H131.644V8.18483C132.045 7.69845 132.554 7.32134 133.176 7.04923C133.797 6.77711 134.457 6.64212 135.158 6.64212C136.086 6.64212 136.919 6.83496 137.654 7.22064Z" fill="#131313"/>
<path d="M5.46373 2.76828L8.72483 8.41628C8.82554 8.58983 8.76769 8.74196 8.72483 8.81695C8.68198 8.89194 8.57913 9.01836 8.37773 9.01836H1.85553L5.46373 2.76828ZM5.46373 0.625634L0 10.0875H8.37558C9.50904 10.0875 10.2183 8.8598 9.65045 7.87847L5.46373 0.625634Z" fill="#F07823"/>
<path d="M24.019 11.3388L18.5552 20.8029L14.3664 13.5479C13.7986 12.5666 14.5078 11.3388 15.6413 11.3388H24.019Z" fill="#F07823"/>
<path d="M10.7346 7.25498L6.54578 0H17.4732L13.2844 7.25498C12.7166 8.23631 11.3003 8.23631 10.7325 7.25498H10.7346Z" fill="#F07823"/>
<path d="M13.2844 14.1714L17.4732 21.4264H6.54578L10.7346 14.1714C11.3024 13.1901 12.7187 13.1901 13.2865 14.1714H13.2844Z" fill="#F07823"/>
<path d="M14.3685 7.87847L18.5552 0.625634L24.019 10.0897H15.6434C14.5099 10.0897 13.8007 8.86195 14.3685 7.88062V7.87847Z" fill="#F07823"/>
<path d="M9.6526 13.5479L5.46373 20.8029L0 11.3388H8.37558C9.50904 11.3388 10.2183 12.5666 9.65045 13.5479H9.6526Z" fill="#F07823"/>
</svg>
