<svg width="654" height="100" viewBox="0 0 654 100" fill="none" xmlns="http://www.w3.org/2000/svg">
<path d="M141.609 33.7996C144.779 28.3996 149.069 24.1796 154.509 21.1496C159.939 18.1196 165.889 16.5996 172.359 16.5996C179.759 16.5996 186.339 18.4196 192.109 22.0496C197.879 25.6796 202.059 30.8296 204.659 37.4996H190.959C189.159 33.8296 186.659 31.0996 183.459 29.2996C180.259 27.4996 176.559 26.5996 172.359 26.5996C167.759 26.5996 163.659 27.6396 160.059 29.6996C156.459 31.7696 153.639 34.7296 151.609 38.5996C149.569 42.4696 148.559 46.9696 148.559 52.0996C148.559 57.2296 149.579 61.7296 151.609 65.5996C153.639 69.4696 156.459 72.4496 160.059 74.5496C163.659 76.6496 167.759 77.6996 172.359 77.6996C176.559 77.6996 180.259 76.7996 183.459 74.9996C186.659 73.1996 189.159 70.4696 190.959 66.7996H204.659C202.059 73.4696 197.879 78.5996 192.109 82.1996C186.339 85.7996 179.759 87.5996 172.359 87.5996C165.819 87.5996 159.859 86.0796 154.459 83.0496C149.059 80.0196 144.779 75.7996 141.609 70.3996C138.439 64.9996 136.859 58.8996 136.859 52.0996C136.859 45.2996 138.439 39.1996 141.609 33.7996Z" fill="#131313"/>
<path d="M213.359 22.5C211.959 21.1 211.259 19.37 211.259 17.3C211.259 15.23 211.959 13.5 213.359 12.1C214.759 10.7 216.489 10 218.559 10C220.629 10 222.259 10.7 223.659 12.1C225.059 13.5 225.759 15.23 225.759 17.3C225.759 19.37 225.059 21.1 223.659 22.5C222.259 23.9 220.559 24.6 218.559 24.6C216.559 24.6 214.759 23.9 213.359 22.5ZM224.159 31.9V87H212.759V31.9H224.159Z" fill="#131313"/>
<path d="M250.609 41.2002V71.7002C250.609 73.7702 251.089 75.2502 252.059 76.1502C253.019 77.0502 254.679 77.5002 257.009 77.5002H264.009V87.0002H255.009C249.879 87.0002 245.939 85.8002 243.209 83.4002C240.479 81.0002 239.109 77.1002 239.109 71.7002V41.2002H232.609V31.9002H239.109V18.2002H250.609V31.9002H264.009V41.2002H250.609Z" fill="#131313"/>
<path d="M290.959 33.35C293.729 31.78 297.009 31 300.809 31V42.8H297.909C293.439 42.8 290.059 43.93 287.759 46.2C285.459 48.47 284.309 52.4 284.309 58V87H272.909V31.9H284.309V39.9C285.979 37.1 288.189 34.92 290.959 33.35Z" fill="#131313"/>
<path d="M358.009 63.7H315.909C316.239 68.1 317.879 71.63 320.809 74.3C323.739 76.97 327.339 78.3 331.609 78.3C337.739 78.3 342.079 75.73 344.609 70.6H356.909C355.239 75.67 352.229 79.82 347.859 83.05C343.489 86.28 338.079 87.9 331.609 87.9C326.339 87.9 321.629 86.72 317.459 84.35C313.289 81.98 310.029 78.65 307.659 74.35C305.289 70.05 304.109 65.07 304.109 59.4C304.109 53.73 305.259 48.75 307.559 44.45C309.859 40.15 313.089 36.83 317.259 34.5C321.429 32.17 326.209 31 331.609 31C337.009 31 341.439 32.13 345.509 34.4C349.579 36.67 352.739 39.85 355.009 43.95C357.279 48.05 358.409 52.77 358.409 58.1C358.409 60.17 358.279 62.03 358.009 63.7ZM346.509 54.5C346.439 50.3 344.939 46.93 342.009 44.4C339.079 41.87 335.439 40.6 331.109 40.6C327.179 40.6 323.809 41.85 321.009 44.35C318.209 46.85 316.539 50.23 316.009 54.5H346.509Z" fill="#131313"/>
<path d="M367.449 44.5C369.749 40.23 372.879 36.92 376.849 34.55C380.819 32.18 385.199 31 389.999 31C394.329 31 398.119 31.85 401.349 33.55C404.579 35.25 407.169 37.37 409.099 39.9V31.9H420.599V87H409.099V78.8C407.169 81.4 404.529 83.57 401.199 85.3C397.869 87.03 394.069 87.9 389.799 87.9C385.069 87.9 380.729 86.68 376.799 84.25C372.869 81.82 369.749 78.42 367.449 74.05C365.149 69.68 363.999 64.73 363.999 59.2C363.999 53.67 365.149 48.77 367.449 44.5ZM406.749 49.5C405.179 46.7 403.129 44.57 400.599 43.1C398.069 41.64 395.329 40.9 392.399 40.9C389.469 40.9 386.729 41.62 384.199 43.05C381.659 44.48 379.619 46.58 378.049 49.35C376.479 52.12 375.699 55.4 375.699 59.2C375.699 63 376.479 66.33 378.049 69.2C379.619 72.07 381.679 74.25 384.249 75.75C386.819 77.25 389.529 78 392.399 78C395.269 78 398.069 77.27 400.599 75.8C403.129 74.33 405.179 72.18 406.749 69.35C408.319 66.52 409.099 63.2 409.099 59.4C409.099 55.6 408.319 52.3 406.749 49.5Z" fill="#131313"/>
<path d="M441.249 85.55C437.819 83.98 435.099 81.85 433.099 79.15C431.099 76.45 430.029 73.43 429.899 70.1H441.699C441.899 72.43 443.019 74.39 445.049 75.95C447.079 77.52 449.629 78.3 452.699 78.3C455.769 78.3 458.379 77.68 460.149 76.45C461.919 75.22 462.799 73.63 462.799 71.7C462.799 69.63 461.819 68.1 459.849 67.1C457.879 66.1 454.769 65 450.499 63.8C446.369 62.67 442.999 61.57 440.399 60.5C437.799 59.43 435.549 57.8 433.649 55.6C431.749 53.4 430.799 50.5 430.799 46.9C430.799 43.97 431.669 41.28 433.399 38.85C435.129 36.42 437.619 34.5 440.849 33.1C444.079 31.7 447.799 31 451.999 31C458.269 31 463.319 32.58 467.149 35.75C470.979 38.92 473.029 43.23 473.299 48.7H461.899C461.699 46.23 460.699 44.27 458.899 42.8C457.099 41.33 454.669 40.6 451.599 40.6C448.529 40.6 446.299 41.17 444.699 42.3C443.099 43.43 442.299 44.93 442.299 46.8C442.299 48.27 442.829 49.5 443.899 50.5C444.969 51.5 446.269 52.28 447.799 52.85C449.329 53.42 451.599 54.14 454.599 55C458.599 56.07 461.879 57.15 464.449 58.25C467.019 59.35 469.229 60.97 471.099 63.1C472.969 65.23 473.929 68.07 473.999 71.6C473.999 74.73 473.129 77.53 471.399 80C469.669 82.47 467.219 84.4 464.049 85.8C460.879 87.2 457.169 87.9 452.899 87.9C448.629 87.9 444.679 87.11 441.249 85.55Z" fill="#131313"/>
<path d="M481.949 44.45C484.249 40.15 487.429 36.83 491.499 34.5C495.569 32.17 500.229 31 505.499 31C512.169 31 517.679 32.58 522.049 35.75C526.419 38.92 529.369 43.43 530.899 49.3H518.599C517.599 46.57 515.999 44.43 513.799 42.9C511.599 41.37 508.829 40.6 505.499 40.6C500.829 40.6 497.119 42.25 494.349 45.55C491.579 48.85 490.199 53.47 490.199 59.4C490.199 65.33 491.579 69.97 494.349 73.3C497.119 76.63 500.829 78.3 505.499 78.3C512.099 78.3 516.459 75.4 518.599 69.6H530.899C529.299 75.2 526.299 79.65 521.899 82.95C517.499 86.25 512.029 87.9 505.499 87.9C500.229 87.9 495.569 86.72 491.499 84.35C487.429 81.98 484.249 78.65 481.949 74.35C479.649 70.05 478.499 65.07 478.499 59.4C478.499 53.73 479.649 48.75 481.949 44.45Z" fill="#131313"/>
<path d="M538.849 44.5C541.149 40.23 544.279 36.92 548.249 34.55C552.219 32.18 556.599 31 561.399 31C565.729 31 569.519 31.85 572.749 33.55C575.979 35.25 578.569 37.37 580.499 39.9V31.9H591.999V87H580.499V78.8C578.569 81.4 575.929 83.57 572.599 85.3C569.269 87.03 565.469 87.9 561.199 87.9C556.469 87.9 552.129 86.68 548.199 84.25C544.259 81.82 541.149 78.42 538.849 74.05C536.549 69.68 535.399 64.73 535.399 59.2C535.399 53.67 536.549 48.77 538.849 44.5ZM578.149 49.5C576.579 46.7 574.529 44.57 571.999 43.1C569.469 41.64 566.729 40.9 563.799 40.9C560.869 40.9 558.129 41.62 555.599 43.05C553.069 44.48 551.019 46.58 549.449 49.35C547.879 52.12 547.099 55.4 547.099 59.2C547.099 63 547.879 66.33 549.449 69.2C551.009 72.07 553.079 74.25 555.649 75.75C558.219 77.25 560.929 78 563.799 78C566.669 78 569.469 77.27 571.999 75.8C574.529 74.33 576.579 72.18 578.149 69.35C579.719 66.52 580.499 63.2 580.499 59.4C580.499 55.6 579.719 52.3 578.149 49.5Z" fill="#131313"/>
<path d="M642.449 33.7C645.879 35.5 648.569 38.17 650.499 41.7C652.429 45.23 653.399 49.5 653.399 54.5V87H642.099V56.2C642.099 51.27 640.869 47.48 638.399 44.85C635.929 42.22 632.569 40.9 628.299 40.9C624.029 40.9 620.649 42.22 618.149 44.85C615.649 47.48 614.399 51.27 614.399 56.2V87H602.999V31.9H614.399V38.2C616.269 35.93 618.649 34.17 621.549 32.9C624.449 31.63 627.529 31 630.799 31C635.129 31 639.019 31.9 642.449 33.7Z" fill="#131313"/>
<path d="M25.5 12.9199L40.72 39.2799C41.19 40.0899 40.92 40.7999 40.72 41.1499C40.52 41.4999 40.04 42.0899 39.1 42.0899H8.66L25.5 12.9199ZM25.5 2.91992L0 47.0799H39.09C44.38 47.0799 47.69 41.3499 45.04 36.7699L25.5 2.91992Z" fill="#131313"/>
<path d="M112.1 52.9199L86.5999 97.0899L67.0499 63.2299C64.3999 58.6499 67.7099 52.9199 72.9999 52.9199H112.1Z" fill="#131313"/>
<path d="M50.1 33.86L30.55 0H81.55L62 33.86C59.35 38.44 52.74 38.44 50.09 33.86H50.1Z" fill="#131313"/>
<path d="M62 66.1401L81.55 100H30.55L50.1 66.1401C52.75 61.5601 59.36 61.5601 62.01 66.1401H62Z" fill="#131313"/>
<path d="M67.0599 36.7699L86.5999 2.91992L112.1 47.0899H73.0099C67.7199 47.0899 64.4099 41.3599 67.0599 36.7799V36.7699Z" fill="#131313"/>
<path d="M45.05 63.2299L25.5 97.0899L0 52.9199H39.09C44.38 52.9199 47.69 58.6499 45.04 63.2299H45.05Z" fill="#131313"/>
</svg>
